# xmcd
#
# Track frame offsets:
#  183
#  23998
#  48970
#  63538
#  80200
#  94730
#  111778
#  127080
#  156328
#  175548
#  204000
#  226635
#  245305
#  266798
#  288745
#  305553
#  326730
#
# Disc length: 4650 seconds
#
# Revision: 0
# Processed by: cddbd v1.4PL0 Copyright (c) Steve Scherf et al.
# Submitted via: AlterCode_WhopSee 2.7
#
DISCID=ee122811
DTITLE=Little Milton - The TK Sessions - Friend Of Mine - Me For You, You For Me
DYEAR=1900
DGENRE=
TTITLE0=Friend Of Mine  -  Friend Of Mine
TTITLE1=You're Gonna Make Me Cry
TTITLE2=Baby It Ain't No Way
TTITLE3=Mis-Using My Love
TTITLE4=Don't Turn Away
TTITLE5=It's All Bad News
TTITLE6=Bring It On Back
TTITLE7=Sundown
TTITLE8=I'm In Love with My Best Friend's Wife
TTITLE9=Me For You, You For Me   -   Me For You, You For Me
TTITLE10=Sugar Dumpling
TTITLE11=Angel Of Mercy
TTITLE12=Loving You (Is The Best Thing To Happen To Me)
TTITLE13=Just One Step
TTITLE14=My Thing Is You
TTITLE15=4:59 A.M.
TTITLE16=Somebody Done Change (The Lock On The Door)
EXTD=
EXTT0=
EXTT1=
EXTT2=
EXTT3=
EXTT4=
EXTT5=
EXTT6=
EXTT7=
EXTT8=
EXTT9=
EXTT10=
EXTT11=
EXTT12=
EXTT13=
EXTT14=
EXTT15=
EXTT16=
PLAYORDER=
